
<!-- Uploaded to: SVG Repo, www.svgrepo.com, Transformed by: SVG Repo Mixer Tools -->
<svg fill="#7d8da1" height="800px" width="800px" version="1.1" id="Layer_1" xmlns="http://www.w3.org/2000/svg" xmlns:xlink="http://www.w3.org/1999/xlink" viewBox="0 0 512.088 512.088" xml:space="preserve" stroke="#7d8da1" stroke-width="26.116487999999997">

<g id="SVGRepo_bgCarrier" stroke-width="0"/>

<g id="SVGRepo_tracerCarrier" stroke-linecap="round" stroke-linejoin="round"/>

<g id="SVGRepo_iconCarrier"> <g> <g> <path d="M510.436,115.798H7.564c-2.212,0-7.564,0-7.564,0v16.492c0,7.008,0,7.424,7.564,7.508H36v24.492 c-0.084,7.34-0.084,7.34,7.564,7.508H244V276.29c-32,0-58.22,26.916-58.22,60c0,19.848-15.26,36-35.108,36 c-6.616,0-11.556,5.384-11.556,12c0,6.616,5.604,12,12.224,12c33.084,0,58.332-26.916,58.332-60c0-19.848,14.332-36,34.332-36v84 c0,6.616,5.384,12,12,12c6.616,0,12-5.384,12-12v-84c20,0,37.78,16.152,37.78,36c0,33.084,27.808,60,60.892,60 c6.616,0,12.444-5.384,12.444-12c0-6.616-5.16-12-11.776-12c-19.848,0-37.668-16.152-37.668-36c0-33.084-29.668-60-61.668-60 V171.798h204c3.916-0.332,3.916-0.332,4-7.508v-24.492h31.248C512,139.63,512,139.63,512,132.29v-13.116 C512,119.174,512.648,115.798,510.436,115.798z"/> </g> </g> </g>

</svg>